# xmcd
#
# Track frame offsets:
#	150
#	20723
#	45044
#	81497
#	102303
#
# Disc length: 1536 seconds
#
# Revision: 1
# Processed by: cddbd v1.5.2PL0 Copyright (c) Steve Scherf et al.
# Submitted via: audiograbber 1.83.01
#
DISCID=3405fe05
DTITLE=Ralph Bennett - The Medicine Man
DYEAR=2007
DGENRE=Blues
TTITLE0=Papa Was A Rolling Stone
TTITLE1=Porcelain Doll
TTITLE2=Medicine Man
TTITLE3=Cars Hiss By My Window
TTITLE4=Rock Em' Up
EXTD=
EXTT0=
EXTT1=
EXTT2=
EXTT3=
EXTT4=
PLAYORDER=
